
<svg width="32" height="32" viewBox="0 0 32 32" fill="none" xmlns="http://www.w3.org/2000/svg">
  <rect width="32" height="32" rx="8" fill="#2A9D8F"/>
  <path d="M8 16C8 11.5817 11.5817 8 16 8C20.4183 8 24 11.5817 24 16C24 20.4183 20.4183 24 16 24" stroke="white" stroke-width="2.5" stroke-linecap="round"/>
  <path d="M16 24C13.7909 24 12 22.2091 12 20C12 17.7909 13.7909 16 16 16C18.2091 16 20 17.7909 20 20C20 22.2091 18.2091 24 16 24Z" fill="#E9C46A"/>
  <path d="M13 12L16 15M19 12L16 15M16 15V8" stroke="white" stroke-width="2" stroke-linecap="round" stroke-linejoin="round"/>
</svg>
